<?xml version="1.0" encoding="UTF-8"?>
<svg id="Layer_1" data-name="Layer 1" xmlns="http://www.w3.org/2000/svg" viewBox="0 0 1300 500">
  <defs>
    <style>
      .cls-1 {
        fill: #fff;
      }

      .cls-2 {
        fill: #294ccc;
      }
    </style>
  </defs>
  <path class="cls-2" d="M376.52,375h-220.3c-14.78,0-26.75-11.98-26.75-26.75V125h220.3c14.78,0,26.75,11.98,26.75,26.75v223.25Z"/>
  <g>
    <path d="M839.66,177.82v47.47c5.62-7.26,17.56-13.35,34.42-13.35,34.19,0,58.54,24.35,58.54,60.65s-24.35,60.18-59.95,60.18-61.12-22.48-61.12-60.18v-105.61h17.26c5.98,0,10.83,4.85,10.83,10.83ZM871.98,237.71c-19.44,0-32.32,12.88-32.32,34.66s12.88,34.66,32.32,34.66,32.55-12.88,32.55-34.66-12.88-34.66-32.55-34.66Z"/>
    <path d="M508.8,211.71c38.64,0,53.86,29.04,53.86,49.41v58.95c0,5.98-4.85,10.83-10.83,10.83h-17.26v-69.08c0-16.63-12.18-24.12-25.76-24.12-13.58,0-25.76,7.49-25.76,24.12v58.25c0,5.98-4.85,10.83-10.83,10.83h-17.27v-69.78c0-20.37,15.22-49.41,53.86-49.41Z"/>
    <path d="M634.54,327.79c0,2.64-2.2,4.77-4.83,4.65-35.28-1.59-53.94-20.87-53.94-55.39v-110.06h17.27c5.98,0,10.83,4.85,10.83,10.83v36h26.7v14.93c0,5.98-4.85,10.83-10.83,10.83h-15.86v37.23c0,21.31,8.66,29.97,30.68,29.97v21.01Z"/>
    <path d="M729.73,294.61h26.34c-7.74,23.68-28.62,38.44-57.01,38.41-33.78-.05-60.54-26.87-60.54-60.66,0-36.06,24.36-60.18,60.65-60.18s60.42,24.12,60.42,60.18c0,.59,0,1.16-.02,1.74-.1,4.23-3.51,7.63-7.74,7.63h-82.35c-.99,0-1.74.92-1.52,1.87,3.57,15,15.01,23.65,30.98,23.65,10.24,0,18.51-3.4,24.18-9.74,1.68-1.87,4.1-2.91,6.62-2.91ZM725.97,255.97c1.17,0,1.92-1.25,1.37-2.29-5.29-10.05-15.33-15.74-28.42-15.74s-22.9,5.69-28.18,15.74c-.54,1.04.2,2.29,1.37,2.29h53.85Z"/>
    <path d="M1033.43,294.61h26.34c-7.74,23.68-28.62,38.44-57.01,38.41-33.78-.05-60.54-26.87-60.54-60.66,0-36.06,24.36-60.18,60.65-60.18s60.42,24.12,60.42,60.18c0,.59,0,1.16-.02,1.74-.1,4.23-3.51,7.63-7.74,7.63h-82.35c-.99,0-1.74.92-1.52,1.87,3.57,15,15.01,23.65,30.98,23.65,10.24,0,18.51-3.4,24.18-9.74,1.68-1.87,4.1-2.91,6.62-2.91ZM1029.68,255.97c1.17,0,1.92-1.25,1.37-2.29-5.29-10.05-15.33-15.74-28.42-15.74s-22.9,5.69-28.18,15.74c-.54,1.04.2,2.29,1.37,2.29h53.85Z"/>
    <path d="M781.18,166.99h17.27v153.08c0,5.98-4.85,10.83-10.83,10.83h-17.27v-153.08c0-5.98,4.85-10.83,10.83-10.83Z"/>
    <path d="M1060,213.82h26.49c3.63,0,7.03,1.82,9.03,4.85l18.44,27.86c.61.92,1.97.92,2.58,0l18.44-27.86c2.01-3.03,5.4-4.85,9.03-4.85h26.5l-38.08,57.69c-.34.52-.34,1.19,0,1.71l38.08,57.69h-26.5c-3.63,0-7.03-1.82-9.03-4.85l-18.44-27.85c-.61-.92-1.97-.92-2.58,0l-18.44,27.85c-2.01,3.03-5.4,4.85-9.03,4.85h-26.49l38.07-57.69c.34-.52.34-1.19,0-1.71l-38.07-57.69Z"/>
    <g>
      <path d="M442.06,320.07c0,5.98-4.85,10.83-10.83,10.83h-17.27v-106.25c0-5.98,4.85-10.83,10.83-10.83h17.27v106.25Z"/>
      <path d="M413.96,171h15.62c6.89,0,12.48,5.59,12.48,12.48v16.01h-15.62c-6.89,0-12.48-5.59-12.48-12.48v-16.01h0Z"/>
    </g>
  </g>
  <path class="cls-1" d="M245.99,177.84v47.54c5.63-7.27,17.59-13.37,34.47-13.37,34.24,0,58.62,24.39,58.62,60.74s-24.39,60.27-60.03,60.27-61.2-22.51-61.2-60.27v-105.76h17.29c5.99,0,10.85,4.86,10.85,10.85ZM278.36,237.81c-19.46,0-32.36,12.9-32.36,34.71s12.9,34.71,32.36,34.71,32.6-12.9,32.6-34.71-12.9-34.71-32.6-34.71Z"/>
  <g>
    <path class="cls-1" d="M201.61,316.27c0,5.99-4.86,10.85-10.85,10.85h-17.29v-106.4c0-5.99,4.86-10.85,10.85-10.85h17.29v106.4Z"/>
    <path class="cls-1" d="M173.47,166.99h15.66c6.89,0,12.48,5.59,12.48,12.48v16.05h-15.66c-6.89,0-12.48-5.59-12.48-12.48v-16.05h0Z"/>
  </g>
</svg>