<?xml version="1.0" encoding="UTF-8"?>
<svg id="Layer_1" data-name="Layer 1" xmlns="http://www.w3.org/2000/svg" viewBox="0 0 500 500">
  <defs>
    <style>
      .cls-1 {
        fill: #fff;
      }

      .cls-2 {
        fill: #294ccc;
      }
    </style>
  </defs>
  <path class="cls-2" d="M373.53,375h-220.3c-14.78,0-26.75-11.98-26.75-26.75V125h220.3c14.78,0,26.75,11.98,26.75,26.75v223.25Z"/>
  <path class="cls-1" d="M243,177.84v47.54c5.63-7.27,17.59-13.37,34.47-13.37,34.24,0,58.62,24.39,58.62,60.74s-24.39,60.27-60.03,60.27-61.2-22.51-61.2-60.27v-105.76h17.29c5.99,0,10.85,4.86,10.85,10.85ZM275.36,237.81c-19.46,0-32.36,12.9-32.36,34.71s12.9,34.71,32.36,34.71,32.6-12.9,32.6-34.71-12.9-34.71-32.6-34.71Z"/>
  <g>
    <path class="cls-1" d="M198.61,316.27c0,5.99-4.86,10.85-10.85,10.85h-17.29v-106.4c0-5.99,4.86-10.85,10.85-10.85h17.29v106.4Z"/>
    <path class="cls-1" d="M170.47,166.99h15.66c6.89,0,12.48,5.59,12.48,12.48v16.05h-15.66c-6.89,0-12.48-5.59-12.48-12.48v-16.05h0Z"/>
  </g>
</svg>